<svg xmlns="http://www.w3.org/2000/svg" width="5.672" height="10.049" viewBox="0 0 5.672 10.049">
  <g id="Arrow_icon" data-name="Arrow icon" transform="translate(5.673 10.049) rotate(180)">
    <path id="Union_1" data-name="Union 1" d="M4.653,9.884c-.306-.287-.6-.583-.906-.876L.232,5.587A.623.623,0,0,1,.2,4.643c.041-.046.085-.09.128-.134Q2.439,2.361,4.548.213A.609.609,0,0,1,5.184.026a.616.616,0,0,1,.3.989c-.027.032-.058.062-.087.092l-3.8,3.87h0l-.112.107.16.157Q3.517,7.068,5.4,8.893a.726.726,0,0,1,.277.509.584.584,0,0,1-.351.583.659.659,0,0,1-.275.064A.566.566,0,0,1,4.653,9.884Z" transform="translate(0 0)" fill="#9d9d9d"/>
  </g>
</svg>
