<svg xmlns="http://www.w3.org/2000/svg" width="41.109" height="37.44" viewBox="0 0 41.109 37.44">
  <g id="bank" transform="translate(-0.25 -1.348)">
    <path id="Path_3560" data-name="Path 3560" d="M35.8,19.545H4.311A3.076,3.076,0,0,1,1.25,16.484V10.676A3.181,3.181,0,0,1,3.174,7.842l15.744-6.3a3.383,3.383,0,0,1,2.274,0l15.744,6.3a3.2,3.2,0,0,1,1.924,2.834v5.808A3.076,3.076,0,0,1,35.8,19.545ZM20.055,3.959a.488.488,0,0,0-.175.017l-15.726,6.3a.658.658,0,0,0-.28.4v5.808a.433.433,0,0,0,.437.437H35.8a.433.433,0,0,0,.437-.437V10.676a.6.6,0,0,0-.28-.4l-15.744-6.3A.389.389,0,0,0,20.055,3.959Z" transform="translate(0.749 0)" fill="#d0d0d0"/>
    <path id="Path_3561" data-name="Path 3561" d="M37.548,26.871H2.562A1.322,1.322,0,0,1,1.25,25.559V20.311A3.076,3.076,0,0,1,4.311,17.25H35.8a3.076,3.076,0,0,1,3.061,3.061v5.248A1.322,1.322,0,0,1,37.548,26.871ZM3.874,24.247H36.236V20.311a.433.433,0,0,0-.437-.437H4.311a.433.433,0,0,0-.437.437Z" transform="translate(0.749 11.916)" fill="#d0d0d0"/>
    <path id="Path_3562" data-name="Path 3562" d="M4.562,25.119A1.322,1.322,0,0,1,3.25,23.807V11.562a1.312,1.312,0,0,1,2.624,0V23.807A1.322,1.322,0,0,1,4.562,25.119Z" transform="translate(2.248 6.671)" fill="#d0d0d0"/>
    <path id="Path_3563" data-name="Path 3563" d="M8.562,25.119A1.322,1.322,0,0,1,7.25,23.807V11.562a1.312,1.312,0,0,1,2.624,0V23.807A1.322,1.322,0,0,1,8.562,25.119Z" transform="translate(5.245 6.671)" fill="#d0d0d0"/>
    <path id="Path_3564" data-name="Path 3564" d="M12.562,25.119a1.322,1.322,0,0,1-1.312-1.312V11.562a1.312,1.312,0,1,1,2.624,0V23.807A1.322,1.322,0,0,1,12.562,25.119Z" transform="translate(8.243 6.671)" fill="#d0d0d0"/>
    <path id="Path_3565" data-name="Path 3565" d="M16.562,25.119a1.322,1.322,0,0,1-1.312-1.312V11.562a1.312,1.312,0,0,1,2.624,0V23.807A1.322,1.322,0,0,1,16.562,25.119Z" transform="translate(11.24 6.671)" fill="#d0d0d0"/>
    <path id="Path_3566" data-name="Path 3566" d="M20.562,25.119a1.322,1.322,0,0,1-1.312-1.312V11.562a1.312,1.312,0,1,1,2.624,0V23.807A1.322,1.322,0,0,1,20.562,25.119Z" transform="translate(14.237 6.671)" fill="#d0d0d0"/>
    <path id="Path_3567" data-name="Path 3567" d="M40.047,23.874H1.562a1.312,1.312,0,1,1,0-2.624H40.047a1.312,1.312,0,1,1,0,2.624Z" transform="translate(0 14.913)" fill="#d0d0d0"/>
  </g>
</svg>
