<svg xmlns="http://www.w3.org/2000/svg" width="23.5" height="21.402" viewBox="0 0 23.5 21.402">
  <g id="bank" transform="translate(-0.25 -1.348)">
    <path id="Path_3560" data-name="Path 3560" d="M21,11.75H3A1.758,1.758,0,0,1,1.25,10V6.68a1.819,1.819,0,0,1,1.1-1.62l9-3.6a1.934,1.934,0,0,1,1.3,0l9,3.6a1.83,1.83,0,0,1,1.1,1.62V10A1.758,1.758,0,0,1,21,11.75ZM12,2.84a.279.279,0,0,0-.1.01L2.91,6.45a.376.376,0,0,0-.16.23V10a.248.248,0,0,0,.25.25H21a.248.248,0,0,0,.25-.25V6.68a.341.341,0,0,0-.16-.23l-9-3.6A.222.222,0,0,0,12,2.84Z" fill="#292d32"/>
    <path id="Path_3561" data-name="Path 3561" d="M22,22.75H2A.755.755,0,0,1,1.25,22V19A1.758,1.758,0,0,1,3,17.25H21A1.758,1.758,0,0,1,22.75,19v3A.755.755,0,0,1,22,22.75ZM2.75,21.25h18.5V19a.248.248,0,0,0-.25-.25H3a.248.248,0,0,0-.25.25Z" fill="#292d32"/>
    <path id="Path_3562" data-name="Path 3562" d="M4,18.75A.755.755,0,0,1,3.25,18V11a.75.75,0,0,1,1.5,0v7A.755.755,0,0,1,4,18.75Z" fill="#292d32"/>
    <path id="Path_3563" data-name="Path 3563" d="M8,18.75A.755.755,0,0,1,7.25,18V11a.75.75,0,0,1,1.5,0v7A.755.755,0,0,1,8,18.75Z" fill="#292d32"/>
    <path id="Path_3564" data-name="Path 3564" d="M12,18.75a.755.755,0,0,1-.75-.75V11a.75.75,0,0,1,1.5,0v7A.755.755,0,0,1,12,18.75Z" fill="#292d32"/>
    <path id="Path_3565" data-name="Path 3565" d="M16,18.75a.755.755,0,0,1-.75-.75V11a.75.75,0,0,1,1.5,0v7A.755.755,0,0,1,16,18.75Z" fill="#292d32"/>
    <path id="Path_3566" data-name="Path 3566" d="M20,18.75a.755.755,0,0,1-.75-.75V11a.75.75,0,0,1,1.5,0v7A.755.755,0,0,1,20,18.75Z" fill="#292d32"/>
    <path id="Path_3567" data-name="Path 3567" d="M23,22.75H1a.75.75,0,0,1,0-1.5H23a.75.75,0,0,1,0,1.5Z" fill="#292d32"/>
  </g>
</svg>
