<svg xmlns="http://www.w3.org/2000/svg" width="21.438" height="21.438" viewBox="0 0 21.438 21.438">
  <g id="Group_7571" data-name="Group 7571" transform="translate(-1680 -290)">
    <path id="Path_3887" data-name="Path 3887" d="M.893,0H4.466a.893.893,0,0,1,0,1.786H.893A.893.893,0,0,1,.893,0Z" transform="translate(1683.573 302.505)" fill="#2b2b2b"/>
    <path id="Path_3888" data-name="Path 3888" d="M.893,0H8.039a.893.893,0,1,1,0,1.786H.893A.893.893,0,0,1,.893,0Z" transform="translate(1683.573 306.078)" fill="#2b2b2b"/>
    <path id="Path_3886" data-name="Path 3886" d="M23.651,4H5.786A1.789,1.789,0,0,0,4,5.786V23.651a1.789,1.789,0,0,0,1.786,1.786H23.651a1.789,1.789,0,0,0,1.786-1.786V5.786A1.789,1.789,0,0,0,23.651,4ZM16.505,5.786V9.359H12.932V5.786ZM5.786,23.651V5.786h5.359v5.359h7.146V5.786h5.359V23.651Z" transform="translate(1676 286)" fill="#2b2b2b"/>
  </g>
</svg>
