<svg xmlns="http://www.w3.org/2000/svg" width="24" height="24" viewBox="0 0 24 24">
  <g id="Group_7661" data-name="Group 7661" transform="translate(-1272 -248)">
    <path id="Path_3907" data-name="Path 3907" d="M1425.81,268.684c1.172-1.174,2.278-2.285,3.388-3.392a1.011,1.011,0,0,1,1.577,1.263,2.926,2.926,0,0,1-.266.29c-1.069,1.069-2.138,2.137-3.266,3.263a1.853,1.853,0,0,1,.268.185q1.538,1.53,3.069,3.066a1.159,1.159,0,0,1,.4.751,1,1,0,0,1-.535.976.965.965,0,0,1-1.1-.113,2.571,2.571,0,0,1-.225-.213q-1.514-1.514-3.026-3.03a2.052,2.052,0,0,1-.191-.271c-.4.4-.743.747-1.087,1.092q-1.165,1.166-2.331,2.33a.973.973,0,0,1-1.082.263.983.983,0,0,1-.666-.836,1.074,1.074,0,0,1,.382-.925q1.546-1.542,3.089-3.086a2.141,2.141,0,0,1,.266-.192l-1.724-1.721c-.558-.558-1.118-1.113-1.672-1.674a1.012,1.012,0,1,1,1.432-1.424q1.569,1.558,3.126,3.128A1.69,1.69,0,0,1,1425.81,268.684Z" transform="translate(-141.913 -10.048)" fill="#e10b17"/>
    <path id="Path_3886" data-name="Path 3886" d="M12,1.5A10.5,10.5,0,1,0,22.5,12,10.512,10.512,0,0,0,12,1.5M12,0A12,12,0,1,1,0,12,12,12,0,0,1,12,0Z" transform="translate(1272 248)" fill="#e10b17"/>
  </g>
</svg>
