<svg xmlns="http://www.w3.org/2000/svg" width="52.06" height="51.923" viewBox="0 0 52.06 51.923">
  <g id="Group_7588" data-name="Group 7588" transform="translate(-1086.001 -1298.699)">
    <g id="Group_735" data-name="Group 735" transform="translate(1086.001 1298.699)">
      <path id="Path_368" data-name="Path 368" d="M169.3,323.956a51.58,51.58,0,0,0,16.19,16.183c.638-.66,1.308-1.346,1.97-2.04a7.142,7.142,0,0,1,3.665-2.41,5.746,5.746,0,0,1,5.447,1.443c2.022,1.95,4.017,3.932,5.947,5.973a5.776,5.776,0,0,1-.017,7.968,40.477,40.477,0,0,1-3.986,3.812,11.536,11.536,0,0,1-7.124,2.371c-4.985.137-9.49-1.5-13.747-3.83a53.36,53.36,0,0,1-22.566-23.36,27.959,27.959,0,0,1-3-10.846,12.2,12.2,0,0,1,3.161-9.187c.957-1.073,2-2.071,3.054-3.055a5.834,5.834,0,0,1,8.135.028q2.936,2.822,5.772,5.748a5.919,5.919,0,0,1-.123,8.462C171.159,322.133,170.229,323.036,169.3,323.956Zm21.855,29.326a7.6,7.6,0,0,0,4.357-1.244,40.974,40.974,0,0,0,3.811-3.355,1.923,1.923,0,0,0,.015-3.135c-1.708-1.732-3.436-3.443-5.152-5.167a2.078,2.078,0,0,0-3.322-.011c-1.2,1.2-2.4,2.411-3.61,3.6a1.98,1.98,0,0,1-2.695.32,55.5,55.5,0,0,1-19.265-19.205,2.045,2.045,0,0,1,.381-3.019c1.185-1.187,2.383-2.36,3.557-3.557a2,2,0,0,0,.006-3.071q-2.679-2.731-5.392-5.428a1.956,1.956,0,0,0-3.007-.013c-.774.728-1.546,1.459-2.295,2.213a8.483,8.483,0,0,0-2.485,6.9A24.788,24.788,0,0,0,159,328.875a50.137,50.137,0,0,0,21.581,21.5,24.639,24.639,0,0,0,10.572,2.907Z" transform="translate(-152.038 -305.341)" fill="#e10b17"/>
    </g>
  </g>
</svg>
