<svg xmlns="http://www.w3.org/2000/svg" width="15" height="22" viewBox="0 0 15 22">
  <g id="Group_7417" data-name="Group 7417" transform="translate(-294 -437)">
    <path id="Path_3845_-_Outline" data-name="Path 3845 - Outline" d="M3,1A2,2,0,0,0,1,3V19a2,2,0,0,0,2,2h9a2,2,0,0,0,2-2V3a2,2,0,0,0-2-2H3M3,0h9a3,3,0,0,1,3,3V19a3,3,0,0,1-3,3H3a3,3,0,0,1-3-3V3A3,3,0,0,1,3,0Z" transform="translate(294 437)" fill="#de1323"/>
    <path id="Path_3844" data-name="Path 3844" d="M.5,0h6a.5.5,0,0,1,0,1H.5a.5.5,0,0,1,0-1Z" transform="translate(298 454)" fill="#de1323"/>
    <path id="Path_3844_-_Outline" data-name="Path 3844 - Outline" d="M.5,0h6a.5.5,0,0,1,0,1H.5a.5.5,0,0,1,0-1Z" transform="translate(298 454)" fill="#de1323"/>
  </g>
</svg>
