<svg xmlns="http://www.w3.org/2000/svg" width="108.545" height="85.5" viewBox="0 0 108.545 85.5">
  <g id="Group_6953" data-name="Group 6953" transform="translate(-924 -375)">
    <g id="Group_6839" data-name="Group 6839" transform="translate(-601.437 284.75)">
      <g id="shopping-bag" transform="translate(1525.437 90.25)">
        <path id="Path_212" data-name="Path 212" d="M57.462,73.355H21.711c-6.84,0-11.97-1.829-15.151-5.448S2.145,59.038,2.98,52.238L6.56,22.413C7.594,13.624,9.821,5.75,25.33,5.75H53.962c15.47,0,17.7,7.874,18.77,16.663l3.579,29.826c.8,6.8-.4,12.089-3.579,15.668C69.432,71.525,64.342,73.355,57.462,73.355ZM25.29,11.715c-11.453,0-12.01,4.533-12.845,11.373L8.866,52.914c-.6,5.05.119,8.749,2.147,11.016s5.607,3.42,10.7,3.42H57.462c5.09,0,8.669-1.153,10.7-3.42s2.744-5.965,2.147-11.016L66.728,23.089c-.835-6.88-1.352-11.373-12.845-11.373Z" transform="translate(-2.727 12.145)" fill="#439e4a"/>
        <path id="Path_213" data-name="Path 213" d="M42.047,31.076a3,3,0,0,1-2.983-2.983V14.174c0-4.295-2.664-6.959-6.959-6.959H20.174c-4.295,0-6.959,2.664-6.959,6.959V28.093a2.983,2.983,0,0,1-5.965,0V14.174c0-7.6,5.329-12.924,12.924-12.924H32.1c7.6,0,12.924,5.329,12.924,12.924V28.093A3,3,0,0,1,42.047,31.076Z" transform="translate(10.739 -1.25)" fill="#439e4a"/>
        <path id="Path_214" data-name="Path 214" d="M59.584,22.245H10.233a2.983,2.983,0,1,1,0-5.965H59.584a2.983,2.983,0,0,1,0,5.965Z" transform="translate(10.739 43.49)" fill="#439e4a"/>
      </g>
    </g>
    <g id="Tick_icon" data-name="Tick icon" transform="translate(971.405 413.674)">
      <path id="Path_1" data-name="Path 1" d="M2405.578,2952.292c1.828-1.834,3.558-3.575,5.293-5.309q10.106-10.11,20.216-20.217a5.464,5.464,0,0,1,8.418.734,5.3,5.3,0,0,1-.656,7.026q-14.6,14.643-29.229,29.258a5.649,5.649,0,0,1-8.01,0q-8.608-8.676-17.275-17.291a5.542,5.542,0,0,1-1.209-6.279,5.455,5.455,0,0,1,7.055-2.777,6.8,6.8,0,0,1,2.012,1.359q6.566,6.59,13.148,13.163A2.756,2.756,0,0,1,2405.578,2952.292Z" transform="translate(-2382.626 -2925.124)" fill="#439e4a" stroke="#fff" stroke-width="6"/>
    </g>
  </g>
</svg>
