<svg xmlns="http://www.w3.org/2000/svg" width="144.336" height="130.512" viewBox="0 0 144.336 130.512">
  <g id="Group_7541" data-name="Group 7541" transform="translate(-1278.945 -135.113)">
    <path id="Path_3879" data-name="Path 3879" d="M1344.113,265.624q-25.691,0-51.383,0c-8.156,0-13.775-5.581-13.778-13.709q-.015-44.553,0-89.105c0-8.128,5.621-13.682,13.794-13.682q39.818,0,79.636.023a2.426,2.426,0,0,0,2.443-1.348,26.07,26.07,0,0,1,27.1-12.209c11.228,2.269,19.7,10.841,21.094,22,1.386,11.072-2.79,19.827-12.158,25.971a2.655,2.655,0,0,0-1.4,2.569q.051,33.065.017,66.13a13.1,13.1,0,0,1-10.9,13.168,15.849,15.849,0,0,1-2.933.191Q1369.882,265.633,1344.113,265.624Zm-19.368-109.335c-.667-.033-1.124-.075-1.582-.075q-15.214,0-30.428.006c-4.323.009-6.751,2.51-6.752,6.9q-.007,44.245,0,88.49c0,4.454,2.44,6.9,6.9,6.9q51.309.009,102.617,0c4.519,0,6.866-2.374,6.867-6.888q.005-26.93.009-53.86c0-3.556,0-7.112,0-10.758-9.186,1.421-17.162-.714-23.667-7.222-6.483-6.487-8.662-14.448-7.309-23.461h-7.776v1.792q0,10.712,0,21.424c0,5.744-.021,11.487.02,17.23a2.863,2.863,0,0,1-1.935,2.882,4.768,4.768,0,0,1-3.21.045,22.042,22.042,0,0,1-3.816-2.616c-3.4-2.44-6.788-4.884-10.248-7.375-4.455,3.115-8.863,6.173-13.243,9.271-1.444,1.021-2.958,1.579-4.617.73s-1.835-2.486-1.835-4.146q.007-10.246,0-20.493Zm71.622,24.064a19.14,19.14,0,0,0,19.872-18.034c.715-9.755-7.274-19.13-17.1-19.969a19.061,19.061,0,1,0-2.771,38Zm-64.389-24.064v33.444c3.32-2.3,6.457-4.466,9.6-6.634,2.444-1.688,3.434-1.677,5.858.058q1.639,1.173,3.277,2.347c1.873,1.337,3.749,2.672,5.765,4.109V156.289Z" fill="#2b2b2b"/>
    <path id="Path_3880" data-name="Path 3880" d="M1373.15,474.527c-6.149,0-12.3.019-18.447-.01a3.488,3.488,0,0,1-3.5-4.619c.455-1.652,1.752-2.478,3.986-2.479q15.966-.01,31.933,0c1.5,0,3-.032,4.5.009a3.549,3.549,0,1,1-.024,7.1C1385.448,474.54,1379.3,474.527,1373.15,474.527Z" transform="translate(-49.713 -229.111)" fill="#2b2b2b"/>
    <path id="Path_3881" data-name="Path 3881" d="M1361.98,418.14c2.374,0,4.748-.021,7.122.006a3.516,3.516,0,0,1,.257,7.026q-7.429.128-14.862-.016c-2.166-.043-3.35-1.532-3.278-3.686a3.244,3.244,0,0,1,3.484-3.322C1357.128,418.114,1359.554,418.14,1361.98,418.14Z" transform="translate(-49.829 -195.137)" fill="#2b2b2b"/>
    <path id="Path_3882" data-name="Path 3882" d="M1640.622,195.477c1.693,1.64,3.2,3.052,4.652,4.519,1.661,1.679,1.694,3.651.155,5.19s-3.456,1.489-5.176-.214c-1.465-1.451-2.863-2.969-4.451-4.624-1.718,1.751-3.236,3.359-4.823,4.9a3.189,3.189,0,0,1-3.974.638,3.484,3.484,0,0,1-1.914-3.869,4.946,4.946,0,0,1,1.234-2.069c1.426-1.476,2.958-2.851,4.614-4.424-1.653-1.6-3.117-2.971-4.534-4.39-1.78-1.782-1.89-3.741-.349-5.3,1.633-1.652,3.52-1.55,5.4.349,1.413,1.424,2.776,2.9,4.265,4.457,1.664-1.712,3.112-3.259,4.623-4.741a3.532,3.532,0,1,1,5.027,4.959C1643.9,192.364,1642.35,193.8,1640.622,195.477Z" transform="translate(-238.586 -34.168)" fill="#2b2b2b"/>
  </g>
</svg>
