<svg xmlns="http://www.w3.org/2000/svg" width="19.649" height="19.649" viewBox="0 0 19.649 19.649">
  <g id="Group_84" data-name="Group 84" transform="translate(0 0)">
    <path id="Path_32" data-name="Path 32" d="M2635.518,139.254h-7.509a6.077,6.077,0,0,1-6.07-6.07v-7.509a6.077,6.077,0,0,1,6.07-6.07h7.509a6.077,6.077,0,0,1,6.07,6.07v7.509a6.077,6.077,0,0,1-6.07,6.07Zm-7.509-17.459a3.884,3.884,0,0,0-3.88,3.88v7.509a3.884,3.884,0,0,0,3.88,3.88h7.509a3.884,3.884,0,0,0,3.88-3.88v-7.509a3.884,3.884,0,0,0-3.88-3.88Z" transform="translate(-2621.939 -119.605)" fill="#faa4cf"/>
    <path id="Path_33" data-name="Path 33" d="M2651.7,154.383a5.022,5.022,0,1,1,5.021-5.022,5.022,5.022,0,0,1-5.021,5.022Zm0-8.072a3.051,3.051,0,1,0,3.05,3.05A3.051,3.051,0,0,0,2651.7,146.311Z" transform="translate(-2641.872 -139.537)" fill="#faa4cf"/>
    <circle id="Ellipse_7" data-name="Ellipse 7" cx="0.849" cy="0.849" r="0.849" transform="translate(14.251 3.662)" fill="#faa4cf"/>
  </g>
</svg>
