<svg xmlns="http://www.w3.org/2000/svg" width="16.914" height="15.917" viewBox="0 0 16.914 15.917">
  <path id="Path_3542" data-name="Path 3542" d="M750.407,192.563a2.309,2.309,0,0,1,1.813-2.3,10.184,10.184,0,0,1,1.457-.058c.158,0,.316,0,.494,0,0-.1,0-.169,0-.24a2.352,2.352,0,0,1,2.345-2.5q4.225,0,8.449,0a2.434,2.434,0,0,1,.594.067,2.388,2.388,0,0,1,1.753,2.451c0,3.3,0,.475,0,3.775,0,1.506.009,3.013-.006,4.519a2.3,2.3,0,0,1-1.817,2.294,12.558,12.558,0,0,1-1.677.06c-.084,0-.168,0-.27,0,0,.139,0,.246,0,.352a2.39,2.39,0,0,1-1.375,2.188,4.506,4.506,0,0,1-.626.207h-9.133l-.25-.067a2.4,2.4,0,0,1-1.756-2.452m1.449-7.142q0,3.551,0,7.1c0,.62.316.982.878.983q4.245.006,8.49,0a.8.8,0,0,0,.825-.607,1.789,1.789,0,0,0,.046-.446c0-4.685,0-3.245,0-7.931,0-.722-.309-1.055-.978-1.055h-8.27c-.685,0-.993.328-.993,1.06C751.851,195.162,751.851,191.376,751.851,193.715Zm11.693,5.328a.366.366,0,0,0,.068.022q.641,0,1.281,0c.655,0,.969-.338.969-1.043,0-4.692,0-3.26,0-7.952,0-.721-.3-1.046-.981-1.046h-4.165c-1.4,0-2.79,0-4.185,0a.859.859,0,0,0-.913.929c-.009.2.054.25.235.249,1.769-.007,3.538-.01,5.306,0a2.627,2.627,0,0,1,.845.13,2.4,2.4,0,0,1,1.539,2.387c0,4.054,0,1.983,0,6.036Z" transform="translate(-750.402 -187.458)" fill="#a0a0a0"/>
</svg>
