<svg xmlns="http://www.w3.org/2000/svg" width="42.173" height="30.741" viewBox="0 0 42.173 30.741">
  <path id="Path_3914" data-name="Path 3914" d="M10.642,28.614h4.385a1.749,1.749,0,0,0,1.266-.474,1.631,1.631,0,0,0,.491-1.23V23.6a1.655,1.655,0,0,0-.491-1.237,1.734,1.734,0,0,0-1.266-.481H10.642a1.727,1.727,0,0,0-1.276.481A1.672,1.672,0,0,0,8.884,23.6v3.308a1.648,1.648,0,0,0,.482,1.23A1.742,1.742,0,0,0,10.642,28.614ZM4.108,15.785H42.789V11.658H4.108ZM8.1,35.144H38.776a5.87,5.87,0,0,0,4.308-1.434,5.74,5.74,0,0,0,1.442-4.246V10.082a5.737,5.737,0,0,0-1.442-4.246A5.872,5.872,0,0,0,38.776,4.4H8.1A5.9,5.9,0,0,0,3.8,5.828a5.711,5.711,0,0,0-1.451,4.254V29.464A5.714,5.714,0,0,0,3.8,33.719,5.894,5.894,0,0,0,8.1,35.144Zm.127-3.209a2.68,2.68,0,0,1-1.962-.677,2.724,2.724,0,0,1-.688-2.026V10.313a2.721,2.721,0,0,1,.688-2.025,2.683,2.683,0,0,1,1.962-.676H38.648a2.716,2.716,0,0,1,1.972.676,2.7,2.7,0,0,1,.7,2.025V29.232a2.408,2.408,0,0,1-2.669,2.7Z" transform="translate(-2.354 -4.403)" fill="#d0d0d0"/>
</svg>
