<svg xmlns="http://www.w3.org/2000/svg" width="28.144" height="36.247" viewBox="0 0 28.144 36.247">
  <path id="Path_3855" data-name="Path 3855" d="M1498.2,133.318c.693.118,1.391.211,2.078.358a13.86,13.86,0,0,1,10.661,11.212,13,13,0,0,1-1.387,8.518,37.2,37.2,0,0,1-2.206,3.283q-4.025,5.855-8.055,11.705a2.7,2.7,0,0,1-4.447,0q-4.867-7.075-9.741-14.146a12.257,12.257,0,0,1-1.895-4.821c-.09-.484-.146-.974-.218-1.461v-1.7c.069-.464.131-.929.207-1.392a13.856,13.856,0,0,1,11-11.277c.575-.109,1.155-.19,1.732-.285Zm-13.062,14.048c.024.282.043.814.119,1.338a9.415,9.415,0,0,0,1.41,4.033q4.916,7.2,9.88,14.358a.571.571,0,0,0,1.045,0c3.181-4.619,6.35-9.247,9.552-13.852a10.158,10.158,0,0,0,1.792-5.028,11.205,11.205,0,0,0-3.682-9.574,11.968,11.968,0,0,0-20.115,8.729Z" transform="translate(-1482.997 -133.318)" fill="#e10b17"/>
</svg>
