<svg xmlns="http://www.w3.org/2000/svg" width="79.81" height="38.061" viewBox="0 0 79.81 38.061">
  <g id="Path_3552" data-name="Path 3552" transform="translate(2239.97 20954.338)" fill="none">
    <path d="M-2219.7-20931.365s2.124-2.943,4.953-1.9c.088-.027-.139-12.934,14.644-8.314-.18-.133,10.014-16.4,27.241-6.635s8.077,30.037-1.177,28.893c.023-.059-58.179,0-58.179,0s-8.76-2.437-2.5-12.041C-2227.027-20940.021-2219.7-20931.365-2219.7-20931.365Z" stroke="none"/>
    <path d="M -2173.279541015625 -20919.27734375 C -2164.302490234375 -20919.27734375 -2156.102294921875 -20938.71484375 -2172.859130859375 -20948.216796875 C -2176.83349609375 -20950.470703125 -2180.431396484375 -20951.337890625 -2183.6162109375 -20951.337890625 C -2194.235595703125 -20951.337890625 -2200.239013671875 -20941.68359375 -2200.100341796875 -20941.58203125 C -2202.34423828125 -20942.283203125 -2204.241455078125 -20942.580078125 -2205.84716796875 -20942.580078125 C -2214.820556640625 -20942.580078125 -2214.66943359375 -20933.291015625 -2214.743896484375 -20933.267578125 C -2217.572998046875 -20934.3046875 -2219.697265625 -20931.365234375 -2219.697265625 -20931.365234375 C -2219.697509765625 -20931.3671875 -2227.0263671875 -20940.021484375 -2234.71435546875 -20931.365234375 C -2240.975341796875 -20921.76171875 -2232.215576171875 -20919.32421875 -2232.215576171875 -20919.32421875 C -2232.215576171875 -20919.32421875 -2206.347900390625 -20919.349609375 -2189.109619140625 -20919.349609375 C -2180.4912109375 -20919.349609375 -2174.028564453125 -20919.34375 -2174.0361328125 -20919.32421875 C -2173.78369140625 -20919.29296875 -2173.531494140625 -20919.27734375 -2173.279541015625 -20919.27734375 M -2173.279541015625 -20916.27734375 L -2173.279541015625 -20916.27734375 C -2173.605712890625 -20916.27734375 -2173.934326171875 -20916.294921875 -2174.258544921875 -20916.330078125 C -2174.8134765625 -20916.337890625 -2177.607666015625 -20916.349609375 -2189.109619140625 -20916.349609375 C -2206.1494140625 -20916.349609375 -2231.953857421875 -20916.32421875 -2232.212646484375 -20916.32421875 L -2232.623779296875 -20916.32421875 L -2233.019775390625 -20916.43359375 C -2233.507080078125 -20916.5703125 -2237.82666015625 -20917.880859375 -2239.42138671875 -20922.107421875 C -2240.00244140625 -20923.646484375 -2240.122802734375 -20925.3359375 -2239.77978515625 -20927.12890625 C -2239.42724609375 -20928.970703125 -2238.568603515625 -20930.947265625 -2237.2275390625 -20933.00390625 L -2237.105712890625 -20933.19140625 L -2236.95751953125 -20933.357421875 C -2235.4921875 -20935.0078125 -2233.90869140625 -20936.255859375 -2232.250732421875 -20937.06640625 C -2230.69482421875 -20937.826171875 -2229.064453125 -20938.212890625 -2227.404296875 -20938.212890625 C -2224.96484375 -20938.212890625 -2222.45947265625 -20937.359375 -2220.15869140625 -20935.744140625 C -2219.98681640625 -20935.623046875 -2219.82177734375 -20935.50390625 -2219.664306640625 -20935.3828125 C -2219.000732421875 -20935.796875 -2218.216064453125 -20936.15625 -2217.324951171875 -20936.34765625 C -2217.0224609375 -20937.666015625 -2216.566162109375 -20938.876953125 -2215.959716796875 -20939.966796875 C -2215.039794921875 -20941.619140625 -2213.80126953125 -20942.9375 -2212.279296875 -20943.884765625 C -2210.4716796875 -20945.009765625 -2208.3076171875 -20945.580078125 -2205.84716796875 -20945.580078125 C -2204.47265625 -20945.580078125 -2202.985595703125 -20945.400390625 -2201.406005859375 -20945.041015625 C -2201.348876953125 -20945.115234375 -2201.29248046875 -20945.185546875 -2201.2373046875 -20945.255859375 C -2200.4990234375 -20946.18359375 -2199.265625 -20947.5859375 -2197.581787109375 -20949 C -2193.423095703125 -20952.4921875 -2188.59375 -20954.337890625 -2183.6162109375 -20954.337890625 C -2179.60546875 -20954.337890625 -2175.48828125 -20953.15625 -2171.37939453125 -20950.826171875 C -2168.940673828125 -20949.443359375 -2166.85107421875 -20947.794921875 -2165.168701171875 -20945.927734375 C -2163.580810546875 -20944.166015625 -2162.34716796875 -20942.201171875 -2161.502197265625 -20940.087890625 C -2160.71923828125 -20938.130859375 -2160.274169921875 -20936.0625 -2160.179931640625 -20933.94140625 C -2160.0927734375 -20931.9765625 -2160.305908203125 -20930.005859375 -2160.8134765625 -20928.08203125 C -2161.64208984375 -20924.939453125 -2163.249755859375 -20922.04296875 -2165.340087890625 -20919.92578125 C -2167.662353515625 -20917.57421875 -2170.48193359375 -20916.27734375 -2173.279541015625 -20916.27734375 Z" stroke="none" fill="#d9d9d9"/>
  </g>
</svg>
