<svg xmlns="http://www.w3.org/2000/svg" width="22.006" height="17.643" viewBox="0 0 22.006 17.643">
  <path id="Path_34" data-name="Path 34" d="M3136.749,126.105a4.17,4.17,0,0,0-3.187-1.338c-2.4.079-4.629,1.547-4.372,5.311,0,0-3.615,1.1-9.241-4.249,0,0-1.81,2.951,1.39,5.731a2.987,2.987,0,0,1-2.1-.42s-.643,2.492,3.475,4.38c0,0-1.39.393-2.02,0,0,0,.367,2.649,4.065,3.278,0,0-1.9,1.889-6.4,1.836,0,0,9.354,4.787,15.84-1.364a13.211,13.211,0,0,0,3.989-10.255,4.132,4.132,0,0,0,2.177-1.9,8.512,8.512,0,0,1-2.439.407s1.705-1.064,1.836-2.322a5.2,5.2,0,0,1-3.013.905Z" transform="translate(-3118.359 -124.765)" fill="#40cafd"/>
</svg>
