<svg width="15" height="12" viewBox="0 0 15 12" fill="none" xmlns="http://www.w3.org/2000/svg">
<path d="M2.45831 6.70306H13.2213C13.4251 6.72097 13.628 6.66013 13.7883 6.53305C13.8921 6.44523 13.9681 6.32909 14.007 6.19879C14.0459 6.06849 14.046 5.92968 14.0073 5.79933C13.9686 5.66898 13.8927 5.55272 13.789 5.46477C13.6853 5.37681 13.5582 5.32096 13.4233 5.30404C13.3416 5.29624 13.2594 5.29291 13.1773 5.29405H2.41431C2.48031 5.22505 2.51431 5.18405 2.55831 5.14505L6.10332 1.60005C6.23184 1.49888 6.32125 1.35623 6.35627 1.19646C6.39129 1.03668 6.36975 0.869695 6.29532 0.724043C6.24926 0.632124 6.18351 0.551489 6.10275 0.487852C6.022 0.424216 5.92822 0.379142 5.82808 0.355848C5.72794 0.332555 5.62389 0.331606 5.52335 0.353071C5.4228 0.374537 5.32821 0.4179 5.24632 0.480055C5.18615 0.527395 5.12935 0.578843 5.07632 0.634047L0.298317 5.41505C0.206741 5.48242 0.13229 5.57038 0.0809784 5.67183C0.0296666 5.77327 0.00292969 5.88537 0.00292969 5.99905C0.00292969 6.11274 0.0296666 6.22481 0.0809784 6.32626C0.13229 6.42771 0.206741 6.51567 0.298317 6.58304L5.11131 11.394C5.17047 11.4681 5.24385 11.5296 5.32713 11.5748C5.41041 11.62 5.50191 11.6481 5.59623 11.6575C5.69055 11.6668 5.78577 11.6571 5.8763 11.6291C5.96682 11.601 6.05081 11.5551 6.12331 11.494C6.26042 11.3819 6.34907 11.2213 6.37086 11.0455C6.39264 10.8697 6.3459 10.6923 6.24032 10.55C6.18697 10.4789 6.12812 10.412 6.06432 10.35C4.90632 9.19137 3.74765 8.03337 2.58832 6.87604C2.5397 6.83247 2.48862 6.79175 2.43532 6.75406L2.45831 6.70306Z" fill="#2B2B2B"/>
</svg>
