<svg xmlns="http://www.w3.org/2000/svg" width="41.804" height="36.092" viewBox="0 0 41.804 36.092">
  <path id="Subtraction_12" data-name="Subtraction 12" d="M20.991,36.092a2.088,2.088,0,0,1-1.316-.779c-.566-.564-1.129-1.133-1.7-1.693-1.027-1.023-1.816-1.8-2.543-2.539l-.641-.639-.207-.205C10.9,26.557,7.08,22.752,3.366,18.977A11.275,11.275,0,0,1,.3,13.773a11.01,11.01,0,0,1,.254-6A11.051,11.051,0,0,1,3.721,2.717,11.135,11.135,0,0,1,9.135.205,11.992,11.992,0,0,1,11.3,0a10.624,10.624,0,0,1,7.234,2.895,13.533,13.533,0,0,1,1.176,1.258l.035.045.059.059c.047.061.1.117.145.178l.07.074c.156.189.332.395.52.609l.332.369.332-.369.16-.187c.078-.088.148-.172.219-.252s.152-.174.23-.262c.34-.408.605-.723.9-1.014A11.369,11.369,0,0,1,30.694.057a11.16,11.16,0,0,1,7.824,19.037c-3.059,3.094-6.207,6.229-9.246,9.262l-.582.576-2.437,2.43-.992,1-1,1c-.664.66-1.336,1.33-2,1.988A1.988,1.988,0,0,1,20.991,36.092ZM11.233,2.682a9.205,9.205,0,0,0-2.645.406A8.217,8.217,0,0,0,2.979,8.959a8.529,8.529,0,0,0,2.277,8.127c3.137,3.186,6.379,6.418,9.426,9.457l1.234,1.234c.633.625,1.258,1.256,1.891,1.883l2.277,2.271a3.583,3.583,0,0,0,.363.313l.012.014.051.039a1.247,1.247,0,0,1,.125.109c.02.016.039.029.055.043l.012.018.3.242.281-.256a1.46,1.46,0,0,0,.133-.107l.027-.023.027-.025a3.3,3.3,0,0,0,.367-.318c1.309-1.311,2.625-2.619,4.133-4.123,3.18-3.156,6.922-6.891,10.625-10.637A8.557,8.557,0,0,0,39.127,11.2a8.391,8.391,0,0,0-2.5-5.955,8.34,8.34,0,0,0-5.922-2.508,8.748,8.748,0,0,0-6.141,2.6c-.316.3-.66.648-1.125,1.121l-.082.084c-.406.412-.859.871-1.3,1.3a1.763,1.763,0,0,1-1.145.621,1.717,1.717,0,0,1-1.129-.6c-.258-.234-.5-.486-.746-.727l-.121-.125c-.109-.117-.223-.23-.332-.34L18.5,6.592l-.117-.115c-.465-.479-.949-.969-1.457-1.43A8.279,8.279,0,0,0,11.233,2.682Z" fill="#b3b3b3"/>
</svg>
