<svg id="trash-2-icon_1" xmlns="http://www.w3.org/2000/svg" width="19.547" height="21.5" viewBox="0 0 19.547 21.5">
  <path id="Path_3538" data-name="Path 3538" d="M24.178,94.957H41.769a.978.978,0,0,0,0-1.957H24.178a.978.978,0,0,0,0,1.957Z" transform="translate(-23.2 -89.095)" fill="#e10b17"/>
  <path id="Path_3539" data-name="Path 3539" d="M83.385,4.888V18.569a.982.982,0,0,1-.978.978H72.635a.982.982,0,0,1-.978-.978V4.888a.978.978,0,0,0-1.957,0V18.569A2.928,2.928,0,0,0,72.631,21.5H82.4a2.928,2.928,0,0,0,2.931-2.931V4.888a.974.974,0,1,0-1.948,0Zm-8.793,0V2.931a.979.979,0,0,1,.978-.978H79.48a.982.982,0,0,1,.978.978V4.884a.978.978,0,1,0,1.957,0V2.931A2.928,2.928,0,0,0,79.484,0H75.575a2.928,2.928,0,0,0-2.931,2.931V4.884a.974.974,0,1,0,1.948,0Z" transform="translate(-67.747)" fill="#e10b17"/>
  <path id="Path_3540" data-name="Path 3540" d="M186.2,210.378v5.862a.978.978,0,1,0,1.957,0v-5.862a.978.978,0,0,0-1.957,0" transform="translate(-179.355 -200.607)" fill="#e10b17"/>
  <path id="Path_3541" data-name="Path 3541" d="M279.3,210.378v5.862a.978.978,0,1,0,1.957,0v-5.862a.978.978,0,0,0-1.957,0" transform="translate(-268.546 -200.607)" fill="#e10b17"/>
</svg>
