<svg xmlns="http://www.w3.org/2000/svg" width="18.681" height="16.947" viewBox="0 0 18.681 16.947">
  <path id="Union_4" data-name="Union 4" d="M-3935.137-865.255c-1.538-1.538-3.216-2.927-4.817-4.4a23.333,23.333,0,0,1-2.257-2.333,8.124,8.124,0,0,1-1.574-2.8,5.77,5.77,0,0,1-.089-2.765,5.751,5.751,0,0,1,1.29-2.67,5.2,5.2,0,0,1,2.249-1.512,5.285,5.285,0,0,1,3.013-.1,6.786,6.786,0,0,1,2.664,1.406,6.727,6.727,0,0,1,2.85-1.45,5.251,5.251,0,0,1,3.047.223,5.224,5.224,0,0,1,2.359,1.851,5.9,5.9,0,0,1,1.023,2.621,5.813,5.813,0,0,1-.025,1.866,6.479,6.479,0,0,1-.9,2.215,13.605,13.605,0,0,1-1.78,2.2c-1.07,1.1-2.236,2.1-3.381,3.12-.893.793-1.782,1.591-2.63,2.434a.907.907,0,0,1-.314.237.632.632,0,0,1-.245.049A.67.67,0,0,1-3935.137-865.255Z" transform="translate(3944 882)" fill="#e10b17"/>
</svg>
