<svg id="Whatsapp_-_icon" data-name="Whatsapp - icon" xmlns="http://www.w3.org/2000/svg" width="57.87" height="58.34" viewBox="0 0 57.87 58.34">
  <path id="Path_252" data-name="Path 252" d="M71.968,41.932A28.575,28.575,0,0,1,68.615,55.7,28.549,28.549,0,0,1,49.369,70.132a28.927,28.927,0,0,1-12.741-.224,26.3,26.3,0,0,1-6.388-2.459,1.151,1.151,0,0,0-1-.082Q22.586,69.5,15.933,71.614c-.506.165-1,.318-1.506.506-.353.129-.376,0-.282-.294.518-1.518,1.024-3.035,1.541-4.565,1.106-3.306,2.212-6.612,3.341-9.906a1.119,1.119,0,0,0-.247-1.024,27.435,27.435,0,0,1-2.988-7.682,28.352,28.352,0,0,1,6.882-25.706,28.383,28.383,0,0,1,10.694-7.235,27.882,27.882,0,0,1,11.918-1.824,27.512,27.512,0,0,1,15.2,5.588,27.986,27.986,0,0,1,10.906,17.27A29.734,29.734,0,0,1,71.968,41.932ZM43.322,18.65a20.329,20.329,0,0,0-3.659.271,12.935,12.935,0,0,0-1.494.306A23.444,23.444,0,0,0,21.792,32.921a22.638,22.638,0,0,0-1.671,13.035,23.133,23.133,0,0,0,3.929,9.776.979.979,0,0,1,.129.976c-.871,2.553-1.718,5.118-2.576,7.682-.047.141-.188.306-.059.435s.294-.012.435-.059c2.576-.824,5.153-1.635,7.706-2.494a1.621,1.621,0,0,1,1.518.2A23.6,23.6,0,0,0,61.9,57.156a23.609,23.609,0,0,0,3.388-24.118,23.477,23.477,0,0,0-8.835-10.565A22.8,22.8,0,0,0,43.322,18.65Z" transform="translate(-14.098 -13.83)" fill="#e10b17"/>
  <path id="Path_253" data-name="Path 253" d="M143.1,144.282a8.33,8.33,0,0,1,3.106-6.518,2.438,2.438,0,0,1,2.035-.553,4.022,4.022,0,0,0,.988.059,1.408,1.408,0,0,1,1.506,1.047c.753,1.976,1.482,3.965,2.223,5.941a1.264,1.264,0,0,1-.071,1.071,9.386,9.386,0,0,1-1.918,2.435c-.635.647-.671.859-.235,1.647a19.133,19.133,0,0,0,9.035,8.576c.2.082.377.224.565.306a1.086,1.086,0,0,0,1.388-.212c.824-.835,1.588-1.729,2.329-2.647.576-.718.847-.824,1.659-.459,1.977.918,3.859,1.988,5.776,3.023.635.341.706.812.612,1.671-.388,3.494-3.059,5.082-6.106,5.588a6.263,6.263,0,0,1-2.953-.235,32.7,32.7,0,0,1-8.094-3.553,26.571,26.571,0,0,1-6.082-5.565,40.441,40.441,0,0,1-4.482-6.741A12.616,12.616,0,0,1,143.1,144.282Z" transform="translate(-127.923 -122.662)" fill="#e10b17"/>
</svg>
