<svg width="17" height="10" viewBox="0 0 17 10" fill="none" xmlns="http://www.w3.org/2000/svg">
<path d="M15.8533 2.18096C15.4073 2.65696 14.9473 3.11896 14.4933 3.58696L9.18431 9.04196C9.09686 9.1503 8.98707 9.2385 8.86243 9.30055C8.73779 9.36259 8.60124 9.39702 8.46208 9.40148C8.32292 9.40594 8.18444 9.38033 8.05609 9.3264C7.92773 9.27247 7.81251 9.19148 7.71831 9.08896C7.64731 9.02496 7.57831 8.95696 7.51031 8.88896C5.28831 6.70763 3.06597 4.52596 0.843308 2.34396C0.704611 2.22496 0.603397 2.06829 0.551925 1.89293C0.500454 1.71757 0.500935 1.53105 0.553308 1.35596C0.599126 1.20391 0.682063 1.06565 0.794642 0.953646C0.90722 0.84164 1.0459 0.759412 1.19819 0.714372C1.35047 0.669332 1.51157 0.662895 1.66696 0.695643C1.82235 0.728392 1.96715 0.799295 2.08831 0.901962C2.13831 0.943962 2.18831 0.990963 2.23131 1.03696C4.23131 3.00296 6.23331 4.96963 8.23731 6.93696L8.40531 7.10196L8.64831 6.85296C10.5376 4.91296 12.426 2.9713 14.3133 1.02796C14.4084 0.905849 14.5276 0.804641 14.6635 0.730657C14.7994 0.656672 14.9491 0.611502 15.1033 0.597962C15.2922 0.582895 15.481 0.627356 15.6433 0.725102C15.8057 0.822849 15.9333 0.968974 16.0083 1.14296C16.072 1.27609 16.1061 1.42141 16.1083 1.56896C16.1066 1.79845 16.015 2.01813 15.8533 2.18096Z" fill="#959595" stroke="#959595" stroke-miterlimit="10"/>
</svg>
