<svg width="21" height="22" viewBox="0 0 21 22" fill="none" xmlns="http://www.w3.org/2000/svg">
<path d="M12.5117 7H13.5117C13.7769 7 14.0313 6.89464 14.2188 6.70711C14.4064 6.51957 14.5117 6.26522 14.5117 6C14.5117 5.73478 14.4064 5.48043 14.2188 5.29289C14.0313 5.10536 13.7769 5 13.5117 5H12.5117C12.2465 5 11.9921 5.10536 11.8046 5.29289C11.6171 5.48043 11.5117 5.73478 11.5117 6C11.5117 6.26522 11.6171 6.51957 11.8046 6.70711C11.9921 6.89464 12.2465 7 12.5117 7ZM12.5117 11H13.5117C13.7769 11 14.0313 10.8946 14.2188 10.7071C14.4064 10.5196 14.5117 10.2652 14.5117 10C14.5117 9.73478 14.4064 9.48043 14.2188 9.29289C14.0313 9.10536 13.7769 9 13.5117 9H12.5117C12.2465 9 11.9921 9.10536 11.8046 9.29289C11.6171 9.48043 11.5117 9.73478 11.5117 10C11.5117 10.2652 11.6171 10.5196 11.8046 10.7071C11.9921 10.8946 12.2465 11 12.5117 11ZM7.51172 7H8.51172C8.77694 7 9.03129 6.89464 9.21883 6.70711C9.40636 6.51957 9.51172 6.26522 9.51172 6C9.51172 5.73478 9.40636 5.48043 9.21883 5.29289C9.03129 5.10536 8.77694 5 8.51172 5H7.51172C7.2465 5 6.99215 5.10536 6.80461 5.29289C6.61708 5.48043 6.51172 5.73478 6.51172 6C6.51172 6.26522 6.61708 6.51957 6.80461 6.70711C6.99215 6.89464 7.2465 7 7.51172 7ZM7.51172 11H8.51172C8.77694 11 9.03129 10.8946 9.21883 10.7071C9.40636 10.5196 9.51172 10.2652 9.51172 10C9.51172 9.73478 9.40636 9.48043 9.21883 9.29289C9.03129 9.10536 8.77694 9 8.51172 9H7.51172C7.2465 9 6.99215 9.10536 6.80461 9.29289C6.61708 9.48043 6.51172 9.73478 6.51172 10C6.51172 10.2652 6.61708 10.5196 6.80461 10.7071C6.99215 10.8946 7.2465 11 7.51172 11ZM19.5117 19H18.5117V2C18.5117 1.73478 18.4064 1.48043 18.2188 1.29289C18.0313 1.10536 17.7769 1 17.5117 1H3.51172C3.2465 1 2.99215 1.10536 2.80461 1.29289C2.61708 1.48043 2.51172 1.73478 2.51172 2V19H1.51172C1.2465 19 0.992148 19.1054 0.804612 19.2929C0.617076 19.4804 0.511719 19.7348 0.511719 20C0.511719 20.2652 0.617076 20.5196 0.804612 20.7071C0.992148 20.8946 1.2465 21 1.51172 21H19.5117C19.7769 21 20.0313 20.8946 20.2188 20.7071C20.4064 20.5196 20.5117 20.2652 20.5117 20C20.5117 19.7348 20.4064 19.4804 20.2188 19.2929C20.0313 19.1054 19.7769 19 19.5117 19ZM11.5117 19H9.51172V15H11.5117V19ZM16.5117 19H13.5117V14C13.5117 13.7348 13.4064 13.4804 13.2188 13.2929C13.0313 13.1054 12.7769 13 12.5117 13H8.51172C8.2465 13 7.99215 13.1054 7.80461 13.2929C7.61708 13.4804 7.51172 13.7348 7.51172 14V19H4.51172V3H16.5117V19Z" fill="#E10B17" stroke="white" stroke-width="0.5"/>
</svg>
