<svg width="29" height="41" viewBox="0 0 29 41" fill="none" xmlns="http://www.w3.org/2000/svg">
<path d="M14.0166 40.046C13.0376 38.781 12.0737 37.5631 11.1397 36.3231C8.7132 33.1397 6.46986 29.821 4.41997 26.383C3.00818 24.0803 1.81946 21.6479 0.870651 19.119C0.433496 17.9702 0.151177 16.7683 0.030807 15.545C-0.0483039 14.4391 0.0337136 13.3275 0.273971 12.2451C0.665342 10.2319 1.49797 8.33035 2.71196 6.67735C3.92595 5.02435 5.49112 3.66091 7.29497 2.68504C9.65787 1.35318 12.3674 0.764915 15.0699 0.997055C17.7314 1.19418 20.2815 2.14701 22.42 3.74364C24.5585 5.34026 26.1963 7.51436 27.1416 10.0101C27.8736 11.873 28.1652 13.8798 27.9937 15.874C27.8484 17.0783 27.546 18.2584 27.0938 19.384C26.3343 21.3661 25.4196 23.2851 24.358 25.123C22.4487 28.4835 20.334 31.723 18.0259 34.8231C16.7929 36.4911 15.5067 38.1231 14.2457 39.7661C14.1817 39.8461 14.1156 39.924 14.0166 40.046ZM14.0166 35.535C14.0796 35.459 14.1169 35.4171 14.1519 35.3721C16.703 32.0378 19.0624 28.5612 21.2188 24.9591C22.4966 22.8703 23.5957 20.6771 24.504 18.4031C25.2069 16.6951 25.415 14.8237 25.104 13.003C24.5983 10.1532 23.0095 7.60935 20.6709 5.90391C18.3323 4.19848 15.4248 3.46356 12.5567 3.85301C10.5427 4.07775 8.63189 4.86118 7.0396 6.11473C5.4473 7.36828 4.23717 9.04201 3.54594 10.947C2.56312 13.2435 2.52908 15.8358 3.45171 18.1571C4.0903 19.8104 4.83983 21.4186 5.69487 22.9711C7.72152 26.5827 9.9717 30.0641 12.4327 33.395C12.9497 34.106 13.4821 34.806 14.0191 35.535H14.0166Z" fill="#B3B3B3"/>
<path d="M14.0208 21.057C12.8692 21.0559 11.7434 20.7152 10.7844 20.0776C9.82549 19.4399 9.07613 18.5336 8.62964 17.4721C8.18316 16.4106 8.0598 15.241 8.27466 14.1097C8.48952 12.9783 9.03309 11.9354 9.83765 11.1115C10.6422 10.2876 11.6717 9.71916 12.7976 9.47745C13.9235 9.23575 15.0959 9.33148 16.1677 9.7526C17.2396 10.1737 18.1632 10.9015 18.8235 11.845C19.4838 12.7885 19.8511 13.9058 19.8796 15.057C19.8963 15.8377 19.7573 16.6138 19.4705 17.34C19.1837 18.0662 18.7552 18.728 18.2097 19.2867C17.6642 19.8453 17.0124 20.2896 16.2932 20.5935C15.574 20.8975 14.8016 21.0551 14.0208 21.057ZM14.0266 12.1341C13.4157 12.135 12.8192 12.3181 12.3127 12.6597C11.8063 13.0013 11.4131 13.4861 11.1834 14.0522C10.9536 14.6183 10.898 15.24 11.0232 15.8379C11.1484 16.4359 11.4485 16.9831 11.886 17.4095C12.3235 17.8359 12.8783 18.1222 13.4793 18.232C14.0802 18.3418 14.7005 18.2701 15.2605 18.0259C15.8205 17.7817 16.2948 17.3762 16.6233 16.8611C16.9518 16.3461 17.1194 15.7448 17.1047 15.1341C17.0846 14.3312 16.7516 13.568 16.1765 13.0075C15.6014 12.447 14.8297 12.1336 14.0266 12.1341Z" fill="#B3B3B3"/>
</svg>
