<svg width="20" height="28" viewBox="0 0 20 28" fill="none" xmlns="http://www.w3.org/2000/svg">
<path d="M9.82098 27.4068C9.19198 26.5968 8.57 25.8129 7.966 25.0149C6.25283 22.7743 4.66992 20.4371 3.22504 18.0149C2.25153 16.4279 1.43241 14.7512 0.778991 13.0079C0.477556 12.2192 0.284186 11.3934 0.20404 10.5528C0.148476 9.73073 0.218305 8.90498 0.411071 8.10387C0.701913 6.75956 1.27882 5.49362 2.1026 4.3922C2.92638 3.29077 3.97765 2.3797 5.185 1.72087C6.38958 1.03472 7.73615 0.635391 9.12006 0.55388C10.4515 0.445075 11.791 0.6196 13.0501 1.06603C14.3092 1.51245 15.4594 2.22061 16.425 3.14385C18.0076 4.60844 19.0443 6.56839 19.3641 8.70085C19.5877 10.1559 19.4225 11.6443 18.8851 13.0149C18.344 14.4472 17.6885 15.8337 16.925 17.1609C15.5891 19.5089 14.1086 21.7715 12.492 23.9358C11.664 25.0548 10.799 26.1479 9.95099 27.2529C9.92099 27.2999 9.88198 27.3388 9.82098 27.4068ZM9.82098 24.3119C9.86498 24.2579 9.89198 24.2289 9.91498 24.1979C11.6676 21.9057 13.2892 19.5162 14.772 17.0409C15.6326 15.6277 16.378 14.1476 17.001 12.6149C17.5288 11.3613 17.6735 9.97955 17.4171 8.64385C17.0177 6.66618 15.8609 4.92312 14.1935 3.78703C12.5262 2.65095 10.4807 2.21199 8.49408 2.56389C7.18369 2.77031 5.95157 3.32103 4.92389 4.15984C3.8962 4.99864 3.10984 6.09541 2.64508 7.33788C2.29997 8.12948 2.11482 8.98151 2.1004 9.84496C2.08599 10.7084 2.24248 11.5662 2.56097 12.3689C3.00891 13.5249 3.53488 14.6491 4.13507 15.7339C5.5121 18.18 7.03826 20.5391 8.70502 22.7978C9.07402 23.3008 9.44609 23.7969 9.82709 24.3119H9.82098Z" fill="#DE1323" stroke="white" stroke-width="0.3"/>
<path d="M9.83742 14.3539C8.7818 14.3554 7.7679 13.9416 7.01467 13.2021C6.26143 12.4625 5.82927 11.4564 5.81142 10.4009C5.78964 9.35613 6.17647 8.34415 6.88954 7.58027C7.60262 6.81639 8.58563 6.36094 9.62941 6.31089C10.1646 6.28294 10.6999 6.3623 11.2039 6.54429C11.7079 6.72628 12.1705 7.00723 12.5643 7.37061C12.9582 7.73399 13.2754 8.17245 13.4973 8.66022C13.7192 9.148 13.8413 9.67522 13.8565 10.2109C13.8732 10.749 13.7816 11.2851 13.5872 11.7872C13.3927 12.2893 13.0993 12.7471 12.7244 13.1336C12.3495 13.52 11.9007 13.8272 11.4048 14.0368C10.9089 14.2465 10.3758 14.3543 9.83742 14.3539ZM9.83742 8.21888C9.55576 8.2183 9.27687 8.27393 9.01699 8.38251C8.7571 8.4911 8.5214 8.65045 8.32387 8.85123C8.12634 9.05202 7.97091 9.2902 7.8666 9.55183C7.76228 9.81345 7.71126 10.0933 7.71645 10.3749C7.73041 10.9259 7.95761 11.45 8.35024 11.8369C8.74287 12.2237 9.27027 12.4431 9.82143 12.4489C10.1031 12.4472 10.3817 12.3898 10.6411 12.28C10.9006 12.1702 11.1357 12.0102 11.333 11.8092C11.5303 11.6081 11.686 11.37 11.7909 11.1086C11.8958 10.8472 11.948 10.5676 11.9445 10.2859C11.931 9.73503 11.7033 9.21109 11.31 8.8252C10.9166 8.43932 10.3884 8.22183 9.83742 8.21888Z" fill="#DE1323" stroke="white" stroke-width="0.3"/>
</svg>
