<svg width="29" height="29" viewBox="0 0 29 29" fill="none" xmlns="http://www.w3.org/2000/svg">
<path d="M17.4597 25.769C17.4597 25.315 17.4597 24.889 17.4597 24.463C17.4597 24.037 17.4446 23.619 17.4846 23.201C17.5305 22.8391 17.7102 22.5073 17.9881 22.2708C18.2659 22.0343 18.622 21.9102 18.9866 21.9227C19.3512 21.9352 19.6978 22.0836 19.9588 22.3386C20.2197 22.5936 20.3758 22.9368 20.3967 23.301C20.4187 24.368 20.4277 25.4371 20.3967 26.5011C20.3731 27.0899 20.1236 27.647 19.7 28.0567C19.2763 28.4664 18.7112 28.6971 18.1218 28.701C15.0728 28.712 12.0218 28.706 8.97584 28.707C6.88784 28.707 4.79966 28.707 2.71266 28.707C2.23078 28.7083 1.7608 28.5569 1.37037 28.2745C0.979943 27.992 0.689298 27.5931 0.539807 27.135C0.452685 26.8587 0.40895 26.5706 0.409925 26.281C0.400591 22.663 0.397624 19.0454 0.401624 15.4281C0.401624 11.1761 0.401624 6.92364 0.401624 2.67098C0.390552 2.18042 0.536036 1.6991 0.816663 1.29659C1.09729 0.894074 1.49854 0.591226 1.96266 0.431964C2.22021 0.343982 2.49079 0.299112 2.76295 0.29903C7.85695 0.29103 12.9516 0.29103 18.0476 0.29903C18.3587 0.293076 18.6677 0.349784 18.9563 0.4659C19.2449 0.582016 19.5075 0.755106 19.7278 0.974811C19.9481 1.19452 20.1217 1.45638 20.2385 1.74471C20.3554 2.03304 20.4131 2.34197 20.408 2.65303C20.4126 3.7917 20.4126 4.93038 20.408 6.06905C20.4096 6.42979 20.2782 6.77845 20.0393 7.04879C19.8005 7.31912 19.4707 7.49226 19.1126 7.53511C18.7544 7.57797 18.3928 7.48756 18.0969 7.28121C17.801 7.07486 17.5911 6.7669 17.5076 6.41597C17.473 6.24149 17.4574 6.0639 17.4607 5.88607C17.4607 5.08007 17.4607 4.27302 17.4607 3.46602V3.25008H3.35084V3.47103C3.35084 10.825 3.35084 18.179 3.35084 25.533C3.35084 25.775 3.35059 25.775 3.59059 25.775H17.4607L17.4597 25.769Z" fill="#B4B4B4" stroke="white" stroke-width="0.2"/>
<path d="M23.8731 15.9531H12.7222C12.3899 15.9702 12.0615 15.8754 11.7896 15.6838C11.5176 15.4921 11.3178 15.2147 11.2222 14.8961C11.1561 14.6762 11.1425 14.4439 11.1826 14.2178C11.2227 13.9918 11.3155 13.7783 11.4531 13.5946C11.5908 13.4108 11.7694 13.2619 11.9751 13.1599C12.1808 13.0578 12.4076 13.0055 12.6372 13.007C13.7772 12.993 14.9152 13.007 16.0542 13.007H23.667C23.718 13.007 23.7672 13.007 23.8672 12.998C23.8052 12.929 23.7672 12.883 23.7232 12.84C23.0232 12.14 22.3129 11.433 21.6109 10.725C21.4716 10.5913 21.3602 10.4315 21.2827 10.2546C21.2052 10.0777 21.1636 9.88734 21.1597 9.69429C21.1558 9.50123 21.1895 9.30932 21.2598 9.12947C21.3301 8.94962 21.4351 8.78533 21.5689 8.64607C21.7026 8.5068 21.8627 8.39518 22.0396 8.3177C22.2164 8.24022 22.4066 8.19843 22.5996 8.19453C22.7927 8.19063 22.9847 8.22472 23.1646 8.29499C23.3444 8.36527 23.5087 8.47032 23.648 8.60408C24.426 9.35808 25.1861 10.134 25.9551 10.904C26.7241 11.674 27.517 12.4611 28.292 13.2441C28.5619 13.4896 28.7526 13.8098 28.8399 14.164C28.8961 14.4328 28.8811 14.7117 28.7964 14.9728C28.7117 15.234 28.5603 15.4685 28.3569 15.653C27.4409 16.5737 26.5227 17.492 25.6021 18.408C24.9911 19.02 24.3822 19.636 23.7652 20.243C23.5835 20.4323 23.3542 20.5695 23.1016 20.6401C22.8489 20.7107 22.5821 20.7122 22.3286 20.6445C22.0752 20.5768 21.8449 20.4422 21.6611 20.255C21.4774 20.0677 21.3472 19.8347 21.2842 19.58C21.2145 19.3264 21.216 19.0584 21.2891 18.8057C21.3621 18.553 21.504 18.3254 21.6983 18.148C22.3709 17.4714 23.0458 16.796 23.7232 16.122C23.7602 16.08 23.7981 16.0371 23.8731 15.9531Z" fill="#B4B4B4" stroke="white" stroke-width="0.2"/>
</svg>
