<svg width="35" height="39" viewBox="0 0 35 39" fill="none" xmlns="http://www.w3.org/2000/svg">
<path d="M17.895 38.42C14.426 38.4537 10.9663 38.057 7.59499 37.239C5.60713 36.7782 3.69192 36.0467 1.90299 35.065C1.66678 34.9404 1.46294 34.7623 1.30773 34.5449C1.15252 34.3275 1.05023 34.0769 1.009 33.813C0.986897 33.5418 0.992935 33.269 1.027 32.999C1.10651 30.9209 1.58166 28.8771 2.42699 26.977C3.30279 25.1467 4.7389 23.643 6.527 22.684C7.36417 22.1863 8.29295 21.8622 9.258 21.731C9.95261 21.6222 10.6637 21.7467 11.28 22.085C12.7107 22.8698 14.2819 23.3653 15.904 23.543C18.1563 23.8462 20.4484 23.6062 22.589 22.843C23.1573 22.65 23.7067 22.405 24.23 22.111C24.9307 21.7155 25.7545 21.5977 26.538 21.781C28.0314 22.1288 29.4219 22.8231 30.5973 23.8077C31.7727 24.7923 32.6999 26.0397 33.304 27.449C34.0529 29.4091 34.4569 31.4841 34.498 33.582C34.4963 33.8895 34.41 34.1906 34.2484 34.4522C34.0868 34.7139 33.8562 34.9259 33.582 35.065C32.6838 35.5912 31.7355 36.0267 30.751 36.365C28.6395 37.119 26.4565 37.6551 24.236 37.965C22.1353 38.2623 20.0166 38.4144 17.895 38.42ZM17.761 35.564V35.623C19.314 35.523 20.869 35.451 22.419 35.317C24.5499 35.1428 26.6546 34.7309 28.694 34.089C29.3507 33.8751 29.9959 33.6274 30.627 33.347C30.8805 33.2564 31.0933 33.0783 31.2271 32.8448C31.3609 32.6112 31.407 32.3375 31.357 32.073C31.311 31.5937 31.2507 31.116 31.176 30.64C31.0108 29.8184 30.7388 29.022 30.367 28.271C30.052 27.4719 29.5679 26.7504 28.9479 26.156C28.3279 25.5615 27.5866 25.1082 26.775 24.827C26.3048 24.6335 25.7989 24.5424 25.2907 24.5596C24.7826 24.5769 24.284 24.7021 23.828 24.927C23.7467 24.9676 23.6621 25.001 23.575 25.027C21.0935 25.9143 18.4404 26.2158 15.823 25.908C14.3345 25.7607 12.8742 25.4046 11.485 24.85C10.8735 24.5846 10.1977 24.504 9.54099 24.618C8.29768 24.803 7.16212 25.4283 6.341 26.38C5.71918 27.1363 5.22347 27.9879 4.87299 28.902C4.42971 29.9754 4.17987 31.1186 4.135 32.279C4.11933 32.4005 4.13114 32.524 4.16956 32.6403C4.20799 32.7566 4.27204 32.8628 4.357 32.951C4.52072 33.1212 4.71125 33.2635 4.921 33.372C6.18318 33.9375 7.50287 34.3646 8.857 34.646C11.7824 35.2774 14.7683 35.5853 17.761 35.564Z" fill="#B3B3B3" stroke="white" stroke-width="0.5"/>
<path d="M8.14 10.645C8.14132 8.09661 9.15441 5.65299 10.9566 3.85118C12.7588 2.04937 15.2026 1.03681 17.751 1.03601C20.2997 1.03575 22.7441 2.0476 24.547 3.84912C26.3498 5.65064 27.3634 8.09435 27.365 10.643C27.3621 13.1882 26.3497 15.6283 24.55 17.428C22.7503 19.2277 20.3102 20.2401 17.765 20.243C15.2159 20.2465 12.7698 19.2372 10.9648 17.4373C9.15982 15.6373 8.14371 13.1941 8.14 10.645ZM24.693 10.645C24.6944 8.8111 23.969 7.05137 22.6758 5.75105C21.3826 4.45072 19.6269 3.71574 17.793 3.70701C16.8794 3.70111 15.9736 3.87583 15.1277 4.22112C14.2818 4.5664 13.5125 5.07545 12.864 5.71901C12.2155 6.3625 11.7005 7.1278 11.3487 7.97094C10.9969 8.81408 10.8152 9.71842 10.814 10.632C10.8161 12.4697 11.5474 14.2315 12.8472 15.5306C14.1471 16.8297 15.9093 17.56 17.747 17.561C19.5852 17.5639 21.3493 16.8371 22.6519 15.5401C23.9545 14.2432 24.689 12.4822 24.694 10.644L24.693 10.645Z" fill="#B3B3B3" stroke="white" stroke-width="0.5"/>
</svg>
