<svg width="23" height="23" viewBox="0 0 23 23" fill="none" xmlns="http://www.w3.org/2000/svg">
<path d="M7.7902 8.2841C9.52627 11.0418 11.8597 13.3742 14.6182 15.1091C14.8872 14.8311 15.1702 14.5421 15.4492 14.2491C15.8452 13.7566 16.386 13.4012 16.9952 13.2331C17.3985 13.1281 17.8221 13.1289 18.225 13.2354C18.6279 13.3419 18.9965 13.5505 19.2952 13.8411C20.1482 14.6631 20.9892 15.4991 21.8032 16.3601C22.2336 16.8139 22.473 17.416 22.4717 18.0415C22.4704 18.667 22.2285 19.2681 21.7962 19.7201C21.2731 20.2934 20.7114 20.8303 20.1152 21.3271C19.2545 21.9852 18.1987 22.3371 17.1152 22.3271C15.0716 22.3219 13.0674 21.7638 11.3152 20.7121C7.19603 18.497 3.8695 15.0534 1.79821 10.8601C1.07125 9.43684 0.641203 7.88066 0.534205 6.28609C0.479284 5.58349 0.569266 4.8771 0.798564 4.21071C1.02786 3.54432 1.3916 2.93214 1.86721 2.41209C2.26721 1.96009 2.71221 1.5391 3.15521 1.1241C3.61614 0.679093 4.23246 0.431368 4.87315 0.433609C5.51384 0.43585 6.1284 0.687873 6.58621 1.13609C7.41154 1.92943 8.22288 2.73744 9.02021 3.5601C9.25406 3.79627 9.43845 4.07668 9.56263 4.38496C9.68682 4.69324 9.74829 5.0232 9.74345 5.35551C9.73861 5.68783 9.66755 6.01586 9.53443 6.32039C9.40132 6.62492 9.20883 6.89985 8.96821 7.1291C8.57421 7.5151 8.1842 7.8931 7.7902 8.2841ZM17.0072 20.6521C17.6587 20.6678 18.2995 20.4847 18.8442 20.1271C19.4086 19.6891 19.9453 19.2165 20.4512 18.7121C20.557 18.6376 20.6435 18.5389 20.7033 18.4241C20.7632 18.3094 20.7947 18.182 20.7953 18.0526C20.7959 17.9232 20.7655 17.7956 20.7067 17.6803C20.6479 17.5651 20.5623 17.4655 20.4572 17.3901C19.7372 16.6601 19.0082 15.9381 18.2842 15.2111C18.2026 15.1026 18.0968 15.0146 17.9754 14.9539C17.8539 14.8933 17.72 14.8618 17.5842 14.8618C17.4484 14.8618 17.3145 14.8933 17.193 14.9539C17.0716 15.0146 16.9658 15.1026 16.8842 15.2111C16.3762 15.7171 15.8732 16.2281 15.3622 16.7311C15.2256 16.8942 15.0318 16.9991 14.8205 17.0242C14.6092 17.0492 14.3963 16.9927 14.2252 16.8661C10.8867 14.8822 8.09444 12.0985 6.10021 8.7661C6.02098 8.67459 5.9619 8.56741 5.92683 8.45155C5.89176 8.3357 5.88149 8.21376 5.89668 8.09367C5.91187 7.97358 5.95217 7.85804 6.01498 7.75456C6.07779 7.65109 6.16169 7.56199 6.26121 7.49309C6.76121 6.99309 7.26121 6.49309 7.76121 5.99309C7.85667 5.91379 7.93349 5.81444 7.98622 5.7021C8.03894 5.58976 8.06628 5.46719 8.06628 5.34309C8.06628 5.219 8.03894 5.09643 7.98622 4.98409C7.93349 4.87174 7.85667 4.7724 7.76121 4.6931C7.00788 3.9251 6.24988 3.1621 5.48721 2.4041C5.41015 2.31081 5.31352 2.2356 5.20416 2.18382C5.0948 2.13204 4.97538 2.10495 4.85438 2.10448C4.73338 2.104 4.61376 2.13016 4.50399 2.18108C4.39423 2.23199 4.29699 2.30641 4.2192 2.39909C3.8932 2.70609 3.5672 3.01411 3.2512 3.33211C2.86996 3.70787 2.5779 4.16438 2.39653 4.66801C2.21515 5.17164 2.14909 5.70953 2.20321 6.24208C2.32712 7.68558 2.74973 9.08757 3.44421 10.3591C5.46386 14.252 8.644 17.4206 12.5442 19.4261C13.9196 20.1645 15.4437 20.5835 17.0032 20.6521H17.0072Z" fill="#E10B17"/>
</svg>
