<svg width="23" height="18" viewBox="0 0 23 18" fill="none" xmlns="http://www.w3.org/2000/svg">
<path d="M11.5026 17.4339H3.38064C2.87687 17.451 2.38398 17.285 1.99326 16.9665C1.60254 16.6481 1.34049 16.1988 1.25564 15.7019C1.23733 15.5754 1.23031 15.4476 1.23464 15.3199C1.23464 11.2699 1.23464 7.22024 1.23464 3.17091C1.23118 2.90069 1.2816 2.63249 1.38296 2.38198C1.48432 2.13147 1.63458 1.90367 1.82497 1.71189C2.01536 1.5201 2.24206 1.36818 2.49182 1.26499C2.74158 1.16181 3.0094 1.10943 3.27964 1.11091C8.75097 1.10691 14.2226 1.10691 19.6946 1.11091C19.9755 1.10824 20.2539 1.16302 20.5128 1.2719C20.7717 1.38077 21.0056 1.54143 21.2001 1.74401C21.3946 1.94659 21.5457 2.18681 21.644 2.44991C21.7422 2.713 21.7857 2.99341 21.7716 3.27391C21.7716 6.96658 21.7716 10.6592 21.7716 14.3519C21.7716 14.7359 21.7716 15.1209 21.7556 15.5029C21.7156 16.0431 21.4674 16.5467 21.0634 16.9075C20.6593 17.2683 20.1309 17.4581 19.5896 17.4369C17.7566 17.4269 15.9246 17.4369 14.0896 17.4369L11.5026 17.4339ZM3.30264 15.3759H3.53064C8.83931 15.3759 14.148 15.3759 19.4566 15.3759C19.6336 15.3759 19.6996 15.3429 19.6986 15.1459C19.6926 11.9252 19.6926 8.70491 19.6986 5.48491V5.20691C19.5736 5.27991 19.4876 5.32791 19.4046 5.37991C16.8306 6.97991 14.2573 8.57991 11.6846 10.1799C11.6329 10.2205 11.569 10.2426 11.5031 10.2426C11.4373 10.2426 11.3734 10.2205 11.3216 10.1799C10.7876 9.84091 10.2456 9.51291 9.70764 9.17991L4.73064 6.08891L3.30764 5.20591L3.30264 15.3759ZM3.38664 3.17591L3.37364 3.21191C3.74564 3.43791 4.11964 3.65891 4.48964 3.88891C6.74831 5.29491 9.00564 6.70258 11.2616 8.11191C11.3267 8.16608 11.4083 8.19632 11.4929 8.1976C11.5775 8.19887 11.66 8.1711 11.7266 8.11891C14.066 6.65225 16.409 5.19124 18.7556 3.73591L19.6556 3.17491L3.38664 3.17591Z" fill="#DE1323" stroke="white" stroke-width="0.5"/>
</svg>
