<svg width="30" height="35" viewBox="0 0 30 35" fill="none" xmlns="http://www.w3.org/2000/svg">
<path d="M21.526 34.313H7.466C4.776 34.313 2.758 33.594 1.507 32.17C0.256001 30.746 -0.226999 28.682 0.0990006 26.008L1.507 14.275C1.914 10.822 2.79 7.72504 8.889 7.72504H20.15C26.234 7.72504 27.11 10.825 27.532 14.278L28.94 26.008C29.253 28.682 28.784 30.763 27.532 32.17C26.234 33.593 24.232 34.313 21.526 34.313ZM8.873 10.075C4.373 10.075 4.15 11.858 3.821 14.548L2.414 26.275C2.179 28.261 2.461 29.716 3.259 30.607C4.057 31.498 5.464 31.952 7.466 31.952H21.526C23.526 31.952 24.935 31.498 25.733 30.607C26.531 29.716 26.812 28.261 26.578 26.275L25.173 14.544C24.842 11.838 24.638 10.075 20.118 10.075H8.873Z" fill="#B3B3B3"/>
<path d="M20.76 12.4171C20.4496 12.4147 20.1526 12.2904 19.9332 12.0709C19.7137 11.8514 19.5894 11.5544 19.587 11.2441V5.77005C19.6163 5.40336 19.5656 5.03467 19.4384 4.68951C19.3111 4.34434 19.1104 4.03095 18.8501 3.77102C18.5898 3.51109 18.2761 3.31083 17.9308 3.1841C17.5854 3.05737 17.2167 3.0072 16.85 3.03705H12.158C11.7917 3.00781 11.4233 3.05844 11.0785 3.18544C10.7336 3.31244 10.4205 3.5128 10.1606 3.77266C9.90074 4.03252 9.70039 4.34569 9.57338 4.69055C9.44638 5.0354 9.39575 5.40372 9.425 5.77005V11.2441C9.425 11.3981 9.39466 11.5506 9.33571 11.6929C9.27676 11.8353 9.19036 11.9646 9.08143 12.0735C8.97251 12.1824 8.8432 12.2688 8.70089 12.3278C8.55857 12.3867 8.40604 12.4171 8.252 12.4171C8.09796 12.4171 7.94542 12.3867 7.80311 12.3278C7.6608 12.2688 7.53148 12.1824 7.42256 12.0735C7.31364 11.9646 7.22724 11.8353 7.16829 11.6929C7.10934 11.5506 7.079 11.3981 7.079 11.2441V5.77005C7.04863 5.09481 7.15919 4.42064 7.40364 3.79046C7.64808 3.16028 8.02106 2.5879 8.49882 2.10976C8.97659 1.63162 9.54867 1.25819 10.1787 1.01325C10.8086 0.768308 11.4827 0.657218 12.158 0.687053H16.85C17.5256 0.656646 18.2001 0.767311 18.8306 1.012C19.461 1.25668 20.0336 1.63002 20.5118 2.10823C20.99 2.58643 21.3634 3.15901 21.6081 3.78947C21.8527 4.41993 21.9634 5.09446 21.933 5.77005V11.2441C21.9306 11.5544 21.8063 11.8514 21.5868 12.0709C21.3674 12.2904 21.0704 12.4147 20.76 12.4171Z" fill="#B3B3B3"/>
<path d="M27.657 26.54H8.248C7.9369 26.54 7.63854 26.4164 7.41856 26.1965C7.19858 25.9765 7.075 25.6781 7.075 25.367C7.075 25.0559 7.19858 24.7576 7.41856 24.5376C7.63854 24.3176 7.9369 24.194 8.248 24.194H27.657C27.9681 24.194 28.2665 24.3176 28.4864 24.5376C28.7064 24.7576 28.83 25.0559 28.83 25.367C28.83 25.6781 28.7064 25.9765 28.4864 26.1965C28.2665 26.4164 27.9681 26.54 27.657 26.54Z" fill="#B3B3B3"/>
</svg>
