<svg width="34" height="31" viewBox="0 0 34 31" fill="none" xmlns="http://www.w3.org/2000/svg">
<path d="M16.974 30.546C16.674 30.546 16.342 30.339 15.91 29.896C15.452 29.425 14.997 28.952 14.539 28.484C13.708 27.631 13.07 26.984 12.483 26.367L11.965 25.835L11.8 25.664C8.81501 22.596 5.729 19.424 2.725 16.276C1.5248 15.0781 0.668299 13.58 0.245005 11.938C-0.13706 10.2832 -0.0662453 8.55597 0.450005 6.93798C0.905569 5.32602 1.78999 3.86788 3.009 2.71898C4.24583 1.62837 5.76168 0.903339 7.387 0.624979C7.96373 0.513508 8.54961 0.456258 9.137 0.453979C11.3259 0.470534 13.423 1.33555 14.987 2.86698C15.3259 3.19615 15.6435 3.54652 15.938 3.91598L15.966 3.95298L16.013 4.00198C16.051 4.05198 16.095 4.10198 16.13 4.14998L16.187 4.21198C16.313 4.36998 16.455 4.54098 16.607 4.71998L16.875 5.02798L17.143 4.71998L17.273 4.56398C17.336 4.49098 17.393 4.42098 17.45 4.35398C17.507 4.28698 17.573 4.20898 17.636 4.13598C17.911 3.79598 18.126 3.53598 18.363 3.29098C19.1988 2.41878 20.2006 1.72261 21.3096 1.24346C22.4185 0.764309 23.612 0.511861 24.82 0.500979C26.0067 0.508587 27.1796 0.755827 28.2683 1.22787C29.3571 1.69991 30.3393 2.38702 31.156 3.24798C32.8561 5.01015 33.8054 7.3637 33.8037 9.8123C33.8021 12.2609 32.8495 14.6131 31.147 16.373C28.674 18.952 26.128 21.566 23.67 24.095L23.199 24.575L21.228 26.601L20.428 27.431L19.619 28.262C19.082 28.812 18.539 29.371 18.005 29.92C17.7562 30.2552 17.3862 30.4798 16.974 30.546ZM9.083 2.68998C8.35737 2.69515 7.63665 2.80943 6.945 3.02898C5.82961 3.3835 4.82529 4.02138 4.03022 4.88025C3.23516 5.73911 2.67655 6.78959 2.409 7.92898C2.11865 9.12121 2.13522 10.3676 2.45717 11.5517C2.77912 12.7358 3.39593 13.8189 4.25 14.7C6.787 17.354 9.409 20.054 11.872 22.584L12.872 23.613C13.384 24.134 13.889 24.66 14.401 25.183L16.243 27.077C16.335 27.1705 16.4333 27.2577 16.537 27.338L16.546 27.349L16.587 27.382C16.6223 27.4101 16.6557 27.4405 16.687 27.473C16.703 27.486 16.719 27.497 16.731 27.509L16.74 27.524L16.98 27.724L17.207 27.511C17.2444 27.4831 17.2801 27.4531 17.314 27.421L17.336 27.401L17.358 27.38C17.4644 27.2992 17.5647 27.2106 17.658 27.115C18.716 26.022 19.781 24.931 21 23.677C23.571 21.045 26.6 17.932 29.592 14.809C30.8985 13.4647 31.6332 11.6665 31.642 9.79198C31.643 7.93705 30.9188 6.15521 29.624 4.82698C29.0085 4.17293 28.2667 3.65044 27.4436 3.29105C26.6205 2.93166 25.7331 2.74284 24.835 2.73598C23.9044 2.74804 22.9856 2.94635 22.1329 3.31922C21.2802 3.69208 20.5107 4.23195 19.87 4.90698C19.614 5.15898 19.336 5.44798 18.96 5.84198L18.894 5.91198C18.565 6.25598 18.199 6.63798 17.839 6.99498C17.6094 7.28146 17.2773 7.46726 16.913 7.51298C16.5549 7.47251 16.227 7.29294 16 7.01298C15.792 6.81298 15.593 6.60798 15.4 6.40698L15.3 6.30698C15.212 6.20698 15.12 6.11498 15.032 6.02398L14.963 5.95398L14.868 5.85398C14.492 5.45398 14.1 5.04598 13.69 4.66198C12.4738 3.4238 10.8184 2.71521 9.083 2.68998Z" fill="#B3B3B3"/>
</svg>
