<svg width="26" height="35" viewBox="0 0 26 35" fill="none" xmlns="http://www.w3.org/2000/svg">
<path d="M12.9 34.72C11.7894 34.7092 10.7283 34.2589 9.94886 33.4676C9.16942 32.6764 8.73513 31.6086 8.741 30.498V30.281H0.100002C0.0734806 30.281 0.0480452 30.2705 0.0292916 30.2517C0.0105379 30.233 2.23117e-06 30.2075 2.23117e-06 30.181V28.912C-0.00159775 28.635 0.106635 28.3687 0.300998 28.1713C0.495362 27.9739 0.760015 27.8616 1.037 27.859H2.186V14.172C2.18226 11.5464 3.1212 9.00672 4.832 7.015C6.50524 5.06294 8.82749 3.78124 11.371 3.406L11.553 3.379V1.652C11.553 1.29396 11.6952 0.950582 11.9484 0.697408C12.2016 0.444234 12.545 0.302002 12.903 0.302002C13.261 0.302002 13.6044 0.444234 13.8576 0.697408C14.1108 0.950582 14.253 1.29396 14.253 1.652V3.381L14.435 3.408C16.9793 3.78261 19.3024 5.06438 20.976 7.017C22.6857 9.00887 23.6243 11.548 23.621 14.173V27.859H24.77C25.0459 27.8632 25.3089 27.9762 25.5018 28.1735C25.6947 28.3707 25.8019 28.6361 25.8 28.912V30.181C25.8 30.2075 25.7895 30.233 25.7707 30.2517C25.752 30.2705 25.7265 30.281 25.7 30.281H17.062V30.497C17.0681 31.6083 16.6335 32.6768 15.8534 33.4683C15.0733 34.2599 14.0113 34.71 12.9 34.72ZM10.816 30.281V30.497C10.8099 30.7747 10.8594 31.0508 10.9614 31.3092C11.0635 31.5675 11.2162 31.8029 11.4104 32.0015C11.6047 32.2 11.8366 32.3578 12.0927 32.4655C12.3487 32.5732 12.6237 32.6287 12.9015 32.6287C13.1793 32.6287 13.4543 32.5732 13.7103 32.4655C13.9664 32.3578 14.1983 32.2 14.3926 32.0015C14.5868 31.8029 14.7395 31.5675 14.8416 31.3092C14.9436 31.0508 14.9931 30.7747 14.987 30.497V30.281H10.816ZM12.9 5.715C11.8028 5.71336 10.7163 5.93161 9.70486 6.35688C8.6934 6.78215 7.77741 7.4058 7.011 8.191C5.43962 9.78406 4.56274 11.9344 4.572 14.172V27.859H21.231V14.172C21.2403 11.9348 20.3642 9.78469 18.794 8.191C18.0269 7.40533 17.1101 6.78142 16.0977 6.35614C15.0854 5.93087 13.998 5.71286 12.9 5.715Z" fill="#B3B3B3"/>
</svg>
