<svg width="17" height="10" viewBox="0 0 17 10" fill="none" xmlns="http://www.w3.org/2000/svg">
<path d="M15.8534 7.82005C15.4074 7.34405 14.9474 6.88205 14.4934 6.41405L9.18435 0.959046C9.0969 0.850874 8.98717 0.762819 8.86262 0.700879C8.73807 0.638938 8.60164 0.604567 8.46261 0.600107C8.32359 0.595647 8.18523 0.621202 8.05697 0.675032C7.92871 0.728861 7.81355 0.809701 7.71935 0.912046C7.64835 0.976046 7.57935 1.04405 7.51135 1.11205C5.28935 3.29471 3.06702 5.47671 0.844352 7.65805C0.70583 7.77717 0.604808 7.93389 0.553516 8.10924C0.502225 8.28459 0.502862 8.47105 0.555351 8.64605C0.601426 8.79767 0.684431 8.93547 0.796914 9.04709C0.909397 9.15871 1.04784 9.24065 1.19981 9.28556C1.35178 9.33047 1.51252 9.33693 1.6676 9.30438C1.82269 9.27183 1.96727 9.20127 2.08835 9.09905C2.13835 9.05705 2.18835 9.01005 2.23135 8.96405C4.23135 6.99805 6.23335 5.03138 8.23735 3.06405L8.41035 2.89905L8.65335 3.14805C10.5394 5.08805 12.425 7.02971 14.3104 8.97305C14.4055 9.09512 14.5247 9.19629 14.6606 9.27027C14.7965 9.34425 14.9462 9.38945 15.1004 9.40305C15.2902 9.41912 15.4802 9.37503 15.6435 9.27703C15.8069 9.17902 15.9352 9.03208 16.0104 8.85705C16.074 8.72392 16.1081 8.5786 16.1104 8.43105C16.1078 8.20162 16.0156 7.98231 15.8534 7.82005Z" fill="white" stroke="white" stroke-miterlimit="10"/>
</svg>
