<svg width="22" height="22" viewBox="0 0 22 22" fill="none" xmlns="http://www.w3.org/2000/svg">
<path d="M21.4702 10.6439C21.4907 12.4041 21.0677 14.1412 20.2402 15.6949C19.5197 17.0393 18.5144 18.21 17.2945 19.1255C16.0745 20.0409 14.6694 20.6789 13.1772 20.9949C11.6319 21.3156 10.0344 21.2875 8.50124 20.9129C7.68405 20.7163 6.89605 20.4137 6.15724 20.0129C6.10228 19.9806 6.04073 19.9611 5.97717 19.9559C5.91362 19.9507 5.84972 19.9599 5.79024 19.9829C4.16291 20.5056 2.53524 21.0249 0.90724 21.5409C0.72124 21.6009 0.54024 21.6579 0.35424 21.7269C0.22424 21.7739 0.21624 21.7269 0.25424 21.6189C0.44424 21.0619 0.63024 20.5049 0.82024 19.9439C1.22624 18.7309 1.63224 17.5179 2.04624 16.3089C2.0631 16.2436 2.06361 16.1751 2.04774 16.1096C2.03187 16.044 2.0001 15.9833 1.95524 15.9329C1.44865 15.054 1.07779 14.1036 0.85524 13.1139C0.471932 11.455 0.501805 9.72725 0.942237 8.08252C1.38267 6.43779 2.22019 4.92635 3.38124 3.68093C4.46768 2.50431 5.81081 1.59407 7.30624 1.02093C8.69768 0.481712 10.1902 0.253375 11.6792 0.35193C13.702 0.460123 15.6454 1.17403 17.2572 2.40093C19.3414 3.93429 20.7699 6.19781 21.2572 8.73893C21.384 9.36645 21.4553 10.0039 21.4702 10.6439ZM10.9582 2.10093C10.5085 2.09371 10.059 2.12717 9.61524 2.20093C9.43053 2.22746 9.24755 2.26486 9.06724 2.31293C7.73914 2.61478 6.50172 3.22774 5.45685 4.10137C4.41198 4.97499 3.58954 6.08428 3.05724 7.33793C2.38448 8.83658 2.17115 10.5011 2.44424 12.1209C2.64248 13.4119 3.13594 14.6398 3.88624 15.7089C3.925 15.7591 3.94977 15.8187 3.95802 15.8816C3.96628 15.9445 3.95773 16.0084 3.93324 16.0669C3.61424 17.0039 3.30324 17.9449 2.98824 18.8859C2.97124 18.9379 2.91924 18.9979 2.96624 19.0459C3.01324 19.0939 3.07424 19.0459 3.12624 19.0239C4.07124 18.7239 5.01724 18.4239 5.95424 18.1089C6.04599 18.0747 6.14472 18.0635 6.24181 18.0762C6.3389 18.0889 6.4314 18.1252 6.51124 18.1819C7.78173 18.9556 9.22969 19.39 10.7163 19.4433C12.2029 19.4966 13.6782 19.1671 15.0009 18.4864C16.3235 17.8057 17.4491 16.7966 18.2697 15.5559C19.0903 14.3152 19.5784 12.8845 19.6872 11.4009C19.7927 10.0269 19.5631 8.64774 19.0182 7.38193C18.3501 5.79308 17.2208 4.44116 15.7762 3.50093C14.3513 2.55228 12.6697 2.06362 10.9582 2.10093Z" fill="#E10B17"/>
<path d="M5.80373 8.2649C5.80212 7.80621 5.90375 7.35304 6.10109 6.93897C6.29844 6.5249 6.58643 6.16054 6.94373 5.8729C7.04555 5.78614 7.16543 5.72317 7.29465 5.68857C7.42387 5.65398 7.55917 5.64863 7.69072 5.6729C7.81035 5.69517 7.93229 5.70256 8.05373 5.69491C8.17658 5.68232 8.29986 5.71412 8.40129 5.78455C8.50273 5.85499 8.5756 5.95939 8.60672 6.07889C8.88272 6.80389 9.15072 7.5339 9.42272 8.2589C9.44747 8.32231 9.45799 8.39039 9.45349 8.4583C9.449 8.52622 9.42961 8.59232 9.39672 8.65191C9.21445 8.98658 8.97791 9.28869 8.69672 9.5459C8.46372 9.7829 8.45072 9.8609 8.61072 10.1459C9.33402 11.5355 10.5013 12.6432 11.9267 13.2929C11.9997 13.3229 12.0647 13.3749 12.1337 13.4049C12.2142 13.4539 12.3093 13.473 12.4024 13.4587C12.4956 13.4444 12.5806 13.3977 12.6427 13.3269C12.9427 13.0199 13.2257 12.6919 13.4977 12.3559C13.7097 12.0929 13.8087 12.0559 14.1067 12.1879C14.8317 12.5249 15.5227 12.9179 16.2267 13.2969C16.4597 13.4219 16.4857 13.5969 16.4507 13.9099C16.3766 14.4601 16.1116 14.9668 15.702 15.3417C15.2925 15.7165 14.7643 15.9357 14.2097 15.9609C13.8467 16.0193 13.475 15.9898 13.1257 15.8749C12.0815 15.5779 11.0824 15.1406 10.1557 14.5749C9.31001 14.0145 8.55695 13.3255 7.92372 12.5329C7.29401 11.7653 6.74292 10.9365 6.27872 10.0589C6.00094 9.49909 5.83937 8.88883 5.80373 8.2649Z" fill="#E10B17"/>
</svg>
